<svg
  xmlns="http://www.w3.org/2000/svg"
  width="103.495"
  height="139.603"
  viewBox="0 0 103.495 139.603"
>
  <g id="Group_1" data-name="Group 1" transform="translate(0.004 0.019)">
    <path
      id="Path_24"
      data-name="Path 24"
      d="M51.008,139.584c-1.347-1.311-2.8-2.585-4.078-3.969-14.163-15.4-27.016-31.859-36.956-50.355C5.932,77.723,2.51,69.895.871,61.448-1.2,50.925.507,40.8,4.986,31.191,11.685,16.809,22.462,6.76,37.791,2.136,51.918-2.088,65.353-.012,77.951,7.561c1.6.983,2.075,2.549,1.238,3.932s-2.439,1.711-4.041.728a43.361,43.361,0,0,0-24.067-6.7C37.937,5.85,27.014,11.2,18.239,20.851A47.245,47.245,0,0,0,5.5,54.239c.073,6.918,2.257,13.4,4.952,19.661,5.571,12.889,13.217,24.5,21.81,35.536,6.008,7.683,12.452,15.037,18.715,22.538.218.291.473.546.8.947.837-.91,1.6-1.748,2.367-2.585,11.578-13,22.392-26.616,31.349-41.58C90,81.182,93.971,73.317,96.411,64.8c3.5-12.234,1.456-23.776-4.442-34.844-.182-.328-.364-.619-.546-.947a2.768,2.768,0,0,1,.983-3.787,2.585,2.585,0,0,1,3.714,1.129,99.061,99.061,0,0,1,4.406,9.612c4.588,12.634,3.641,25.086-1.384,37.429-5.279,12.962-12.634,24.686-20.826,35.937a280.518,280.518,0,0,1-24.067,28.837c-.51.51-1.092.91-1.638,1.384C52.1,139.584,51.554,139.584,51.008,139.584Z"
      transform="translate(0 0)"
      fill="#103174"
    />
    <path
      id="Path_25"
      data-name="Path 25"
      d="M110.764,98.295v24.941c0,2.439-.947,3.386-3.386,3.386h-39.5c-2.512,0-3.423-.947-3.423-3.459V98.331c-1.311,1.129-2.367,2.039-3.459,2.949a2.719,2.719,0,0,1-3.714.182c-1.384-1.165-1.311-3.022.218-4.333,4.26-3.677,8.556-7.355,12.816-11,4.952-4.26,9.94-8.52,14.892-12.78,1.93-1.638,2.913-1.638,4.879,0q13.708,11.742,27.38,23.521a3.747,3.747,0,0,1,1.384,2.33,3.668,3.668,0,0,1-1.274,2.476,2.286,2.286,0,0,1-3.022-.146C113.35,100.516,112.221,99.5,110.764,98.295ZM87.608,78.415c-5.68,4.879-11.214,9.649-16.785,14.382a2.452,2.452,0,0,0-.947,2.075c.036,8.3,0,16.6.036,24.9,0,.437.036.874.073,1.274H84.913V110.856c0-2.075,1.056-3.35,2.767-3.313,1.675.036,2.694,1.274,2.694,3.386v10.122h15q0-13.49-.036-26.8a2.143,2.143,0,0,0-.765-1.311c-2.84-2.476-5.716-4.915-8.556-7.391C93.215,83.221,90.484,80.854,87.608,78.415Z"
      transform="translate(-35.799 -45.877)"
      fill="#103174"
    />
    <path
      id="Path_26"
      data-name="Path 26"
      d="M235.324,43.994a2.713,2.713,0,1,1-2.694-2.694A2.786,2.786,0,0,1,235.324,43.994Z"
      transform="translate(-146.195 -26.275)"
      fill="#103174"
    />
    <path
      id="Path_27"
      data-name="Path 27"
      d="M140.324,142.058a2.713,2.713,0,1,1-2.694-2.658A2.78,2.78,0,0,1,140.324,142.058Z"
      transform="translate(-85.784 -88.657)"
      fill="#103174"
    />
  </g>
</svg>
