<svg
  xmlns="http://www.w3.org/2000/svg"
  width="21.911"
  height="21.951"
  viewBox="0 0 21.911 21.951"
>
  <path
    id="Icon_feather-phone-call"
    data-name="Icon feather-phone-call"
    d="M16.087,5.494a4.993,4.993,0,0,1,3.944,3.944M16.087,1.5a8.987,8.987,0,0,1,7.938,7.928m-1,7.968v3a2,2,0,0,1-2.177,2,19.761,19.761,0,0,1-8.617-3.065,19.471,19.471,0,0,1-5.991-5.991A19.761,19.761,0,0,1,3.176,4.675,2,2,0,0,1,5.163,2.5h3a2,2,0,0,1,2,1.717,12.821,12.821,0,0,0,.7,2.806,2,2,0,0,1-.449,2.107L9.137,10.4a15.976,15.976,0,0,0,5.991,5.991L16.4,15.12A2,2,0,0,1,18.5,14.67a12.821,12.821,0,0,0,2.806.7A2,2,0,0,1,23.027,17.4Z"
    transform="translate(-2.667 -0.948)"
    fill="none"
    stroke="#fff"
    stroke-linecap="round"
    stroke-linejoin="round"
    stroke-width="1"
  />
</svg>
