<svg
  xmlns="http://www.w3.org/2000/svg"
  width="22.544"
  height="22.427"
  viewBox="0 0 22.544 22.427"
>
  <path
    id="Icon_ionic-ios-pricetag"
    data-name="Icon ionic-ios-pricetag"
    d="M23.319,3.375h-6.33a.745.745,0,0,0-.525.216L3.808,16.247a1.486,1.486,0,0,0,0,2.1L9.834,24.37a1.486,1.486,0,0,0,2.1,0l12.65-12.65a.745.745,0,0,0,.216-.525V4.858A1.476,1.476,0,0,0,23.319,3.375ZM20.862,9.134A1.648,1.648,0,1,1,22.32,7.676,1.65,1.65,0,0,1,20.862,9.134Z"
    transform="translate(-2.753 -2.875)"
    fill="none"
    stroke="#02163b"
    stroke-width="1"
  />
</svg>
