<svg
  xmlns="http://www.w3.org/2000/svg"
  width="21.375"
  height="19"
  viewBox="0 0 21.375 19"
>
  <path
    id="Icon_awesome-cart-plus"
    data-name="Icon awesome-cart-plus"
    d="M18.73,11.875H7.851l.243,1.188h9.961a.891.891,0,0,1,.868,1.088l-.2.9a2.079,2.079,0,1,1-2.36.386H8.579a2.078,2.078,0,1,1-2.488-.318L3.484,2.375H.891A.891.891,0,0,1,0,1.484V.891A.891.891,0,0,1,.891,0H4.7a.891.891,0,0,1,.873.712l.34,1.663H20.484a.891.891,0,0,1,.868,1.088L19.6,11.182A.891.891,0,0,1,18.73,11.875ZM15.141,6.234H13.359V4.75a.594.594,0,0,0-.594-.594h-.594a.594.594,0,0,0-.594.594V6.234H9.8a.594.594,0,0,0-.594.594v.594a.594.594,0,0,0,.594.594h1.781V9.5a.594.594,0,0,0,.594.594h.594a.594.594,0,0,0,.594-.594V8.016h1.781a.594.594,0,0,0,.594-.594V6.828A.594.594,0,0,0,15.141,6.234Z"
    fill="#fff"
  />
</svg>
