<svg
  xmlns="http://www.w3.org/2000/svg"
  width="11.313"
  height="10.828"
  viewBox="0 0 11.313 10.828"
>
  <path
    id="Icon_awesome-star"
    data-name="Icon awesome-star"
    d="M6.491.376,5.11,3.176l-3.089.45a.677.677,0,0,0-.374,1.155L3.882,6.959l-.529,3.077a.676.676,0,0,0,.981.713L7.1,9.3l2.764,1.453a.677.677,0,0,0,.981-.713l-.529-3.077,2.235-2.178a.677.677,0,0,0-.374-1.155l-3.089-.45L7.7.376a.677.677,0,0,0-1.214,0Z"
    transform="translate(-1.441 0.001)"
    fill="#02163b"
  />
</svg>
